<svg xmlns="http://www.w3.org/2000/svg" width="512" height="512"><path fill="#3A5A98" d="M7.9 255.8C7.9 118.9 119 7.9 256 7.9s248 111 248 247.9-111.1 247.9-248 247.9c-137 0-248.1-111-248.1-247.9z"/><path fill="#345387" d="M431.4 80.9c96.9 96.8 96.9 253.8 0 350.6-96.9 96.8-253.9 96.8-350.8 0L431.4 80.9z"/><path fill="#2E4D72" d="M502.4 283.7 323 104.4l-93.2 93.1 5.5 5.5-53 53 43.4 43.4-5.7 5.7 47 47-54.2 54.1 92.6 92.5c104.4-21 185-107.6 197-215z"/><path fill="#FFF" d="M212.6 163.7v41.6h-30.5v50.8h30.5v151.1h62.6V256.1h42s3.9-24.4 5.8-51h-47.6v-34.8c0-5.2 6.8-12.2 13.6-12.2h34.1v-52.9h-46.4c-65.6 0-64.1 50.9-64.1 58.5z"/></svg>