<svg xmlns="http://www.w3.org/2000/svg" width="512" height="512"><path fill="#527FA2" d="M7.9 256C7.9 119 119 7.9 256 7.9S504.1 119 504.1 256 393 504.1 256 504.1 7.9 393 7.9 256z"/><path fill="#467593" d="M431.4 80.6c96.9 96.9 96.9 254 0 350.8-96.9 96.9-254 96.9-350.8 0L431.4 80.6z"/><path fill="#416B82" d="M503 279 366.7 142.7l-9.1 9-17.7-17.7-16.4 16.4-14.9-14.9-58.5 58.5-62.3-62.3-6.1 6.1 4.4 4.4-2.7 2.7-12.7-12.7-6.3 6.3 5.9 5.9-5.7 5.7-11-11-13.2 13.2 12 12-12 12 4.2 4.2-4.2 4.2 10 10-20.4 20.2 49.6 49.6-10.4 10.4 32.7 32.7-60.6 60.6 135 135C396.2 493.5 492 398.5 503 279z"/><path fill="#FFF" d="M383.4 222.5h-72.3c28.2 46.5-4.1 107.7-62.4 102-35.6-3.5-68.2-41.8-53.8-85.3.9-2.8 2.8-5.8 4.3-8.7 1.4-2.8 3.8-6 3.1-8h-71.7v119.3c2.4 23.3 20.8 41.7 44.5 43.9h164.4c23.8-2.4 41.5-22.2 43.9-43.3V222.5z"/><path fill="#FFF" d="M250.5 210.8c-9.7 1.2-14.9 3.3-19.8 6.2-11.1 6.7-21.6 19.1-23.5 35.8-3.8 33.7 20.9 56.9 49.4 56.9 22.7 0 50.3-16.2 50.1-50.1-.2-30.8-24.8-52.6-56.2-48.8zm42.7 58.7c-4.1 17.1-23.1 30-42.6 27.2-18.7-2.6-38.8-25.9-27.8-51.9 4.1-9.6 13.2-20.3 32.1-21.6 23.2-1.7 44.9 19.1 38.3 46.3z"/><path fill="#FFF" d="M369.2 145.9c-6.8-6.8-18-13.1-30.3-14.2H198V196h-10.5v-64.3H181V196h-10.5v-63.7c-2.3.4-4.6 1.1-6.8 1.8V196h-10.5v-56.9c-3.3 2.1-6.3 4.4-8.7 6.8-14 14-15.1 38-14.2 68.6h78.5c3.2-.7 7-4.7 9.9-6.8 10.6-7.8 24.2-12 38-12.2h.4c13.8.1 27.4 4.4 38 12.2 2.9 2.1 6.7 6.1 9.9 6.8h78.5c.3-30.9-.3-54.7-14.3-68.6zm-10.8 41.7c0 3.6-2.9 6.5-6.5 6.5h-27.2c-3.6 0-6.5-2.9-6.5-6.5v-27.2c0-3.6 2.9-6.5 6.5-6.5h27.2c3.6 0 6.5 2.9 6.5 6.5v27.2z"/></svg>