<?xml version="1.0" encoding="utf-8"?>
<!-- Generator: Adobe Illustrator 24.0.1, SVG Export Plug-In . SVG Version: 6.00 Build 0)  -->
<svg version="1.1" id="Capa_1" xmlns="http://www.w3.org/2000/svg" xmlns:xlink="http://www.w3.org/1999/xlink" x="0px" y="0px"
	 viewBox="0 0 198.43 198.43" style="enable-background:new 0 0 198.43 198.43;" xml:space="preserve">
<style type="text/css">
	.st0{fill:none;stroke:#000000;stroke-width:5;stroke-miterlimit:10;}
	.st1{fill:none;stroke:#000000;stroke-miterlimit:10;}
</style>
<circle class="st0" cx="100.79" cy="98.16" r="85.04"/>
<path class="st1" d="M47.11,138.08L36.69,79.01l22.85-4.03c9.93-1.75,17.87-0.12,23.84,4.9s9.64,11.39,11,19.12
	c1.56,8.83,0.18,16.47-4.15,22.93c-4.32,6.46-10.71,10.43-19.16,11.92L47.11,138.08z"/>
<path d="M62.84,121.29l4.72-0.83c3-0.53,5.28-2.43,6.82-5.71c1.55-3.28,1.88-7.43,1-12.45c-0.76-4.3-2.33-7.84-4.71-10.64
	c-2.38-2.79-5.3-3.88-8.77-3.27l-4.72,0.83L62.84,121.29z"/>
<polygon points="154.47,58.24 164.88,117.31 148.05,120.28 140.6,78.04 137.12,122.21 125.61,124.24 106.8,84 114.25,126.24 
	100.66,128.64 90.24,69.56 113.94,65.38 128.04,95.25 130.68,62.43 "/>
<g id="Capa_2">
</g>
</svg>
