<svg width="297" height="276" viewBox="0 0 297 276" fill="none" xmlns="http://www.w3.org/2000/svg">
<g opacity="0.6">
<g opacity="0.6">
<path opacity="0.6" d="M146.844 231.172L128.613 177.626L126.545 174.926L122.033 172.624L110.507 172.419H99.1867L94.4234 172.681L92.2758 174.652L90.905 176.168V52.292H146.844V231.172Z" fill="#00D0A6"/>
</g>
</g>
<path d="M146.844 52.2922C146.842 46.7755 145.2 41.3834 142.126 36.7976C139.051 32.2118 134.683 28.6382 129.573 26.5286C124.463 24.419 118.841 23.8682 113.418 24.9458C107.994 26.0235 103.012 28.6811 99.1027 32.5828C95.193 36.4844 92.531 41.4549 91.4529 46.8657C90.3748 52.2765 90.9292 57.8847 93.046 62.9812C95.1629 68.0777 98.7471 72.4337 103.345 75.4983C107.944 78.563 113.35 80.1987 118.88 80.1987C122.553 80.1987 126.191 79.4768 129.584 78.0742C132.977 76.6717 136.061 74.6159 138.657 72.0244C141.254 69.4329 143.314 66.3564 144.718 62.9707C146.123 59.585 146.845 55.9564 146.844 52.2922Z" fill="#00D0A6"/>
<path d="M108.656 65.7269C108.376 65.7223 108.103 65.6394 107.868 65.4877C107.633 65.336 107.445 65.1216 107.326 64.8687C107.207 64.6159 107.162 64.3348 107.195 64.0574C107.228 63.78 107.339 63.5175 107.514 63.2997L126.933 39.3701C127.045 39.187 127.194 39.03 127.372 38.9096C127.549 38.7893 127.751 38.7086 127.963 38.6728C128.174 38.6371 128.391 38.6471 128.599 38.7024C128.806 38.7577 128.999 38.8568 129.165 38.9931C129.33 39.1294 129.465 39.2997 129.559 39.4923C129.652 39.685 129.703 39.8955 129.709 40.1096C129.714 40.3237 129.672 40.5364 129.588 40.7332C129.503 40.93 129.377 41.1064 129.218 41.2503L109.799 65.1229C109.665 65.3018 109.493 65.4488 109.296 65.5532C109.098 65.6577 108.88 65.717 108.656 65.7269Z" fill="white"/>
<path d="M109.73 49.6027C108.558 49.6027 107.411 49.2559 106.437 48.606C105.462 47.9562 104.702 47.0326 104.253 45.9519C103.804 44.8713 103.687 43.6821 103.916 42.5349C104.144 41.3877 104.709 40.3339 105.538 39.5068C106.367 38.6798 107.424 38.1165 108.574 37.8883C109.724 37.6601 110.916 37.7772 111.999 38.2248C113.082 38.6725 114.008 39.4305 114.66 40.403C115.311 41.3756 115.659 42.519 115.659 43.6887C115.656 45.2563 115.03 46.7588 113.919 47.8672C112.808 48.9757 111.302 49.5997 109.73 49.6027ZM109.73 40.7488C109.147 40.7465 108.576 40.917 108.09 41.2387C107.604 41.5604 107.224 42.0187 106.999 42.5557C106.775 43.0927 106.714 43.6842 106.827 44.2552C106.939 44.8263 107.219 45.3512 107.631 45.7635C108.043 46.1758 108.568 46.4569 109.14 46.5713C109.712 46.6856 110.305 46.6281 110.844 46.4059C111.383 46.1837 111.844 45.8069 112.168 45.3232C112.493 44.8395 112.666 44.2707 112.666 43.6887C112.66 42.9149 112.348 42.1747 111.799 41.6286C111.249 41.0825 110.506 40.7745 109.73 40.7716V40.7488Z" fill="white"/>
<path d="M128.03 66.7981C126.857 66.7981 125.711 66.4512 124.736 65.8014C123.761 65.1515 123.001 64.2279 122.553 63.1472C122.104 62.0666 121.987 60.8775 122.215 59.7302C122.444 58.583 123.009 57.5293 123.838 56.7022C124.667 55.8751 125.723 55.3118 126.873 55.0836C128.023 54.8554 129.216 54.9725 130.299 55.4202C131.382 55.8678 132.308 56.6258 132.959 57.5984C133.611 58.5709 133.959 59.7143 133.959 60.884C133.959 62.4525 133.334 63.9568 132.222 65.0659C131.11 66.175 129.602 66.7981 128.03 66.7981ZM128.03 57.9555C127.448 57.9487 126.877 58.1147 126.39 58.4323C125.902 58.75 125.521 59.2049 125.293 59.7394C125.066 60.2739 125.003 60.8638 125.112 61.4341C125.222 62.0044 125.498 62.5294 125.908 62.9424C126.317 63.3554 126.84 63.6377 127.41 63.7535C127.981 63.8693 128.573 63.8134 129.111 63.5927C129.65 63.3721 130.11 62.9968 130.434 62.5145C130.758 62.0322 130.931 61.4647 130.931 60.884C130.929 60.1141 130.623 59.3761 130.08 58.8285C129.538 58.2809 128.802 57.9674 128.03 57.9555Z" fill="white"/>
<path d="M197.996 173.9C197.644 173.894 197.305 173.765 197.039 173.534C196.773 173.303 196.598 172.986 196.543 172.639C196.489 172.292 196.559 171.936 196.741 171.636C196.923 171.335 197.206 171.108 197.54 170.995C204.764 168.561 210.998 163.85 215.302 157.571C215.517 157.268 215.837 157.056 216.199 156.974C216.562 156.892 216.942 156.946 217.267 157.127C218.151 157.628 219.151 157.891 220.169 157.89C221.57 157.884 222.924 157.384 223.991 156.476C225.057 155.569 225.767 154.315 225.994 152.935C226.221 151.556 225.952 150.141 225.232 148.941C224.513 147.741 223.391 146.834 222.065 146.381C221.712 146.263 221.416 146.017 221.237 145.692C221.057 145.367 221.006 144.987 221.094 144.626C221.63 142.351 221.959 140.032 222.076 137.698C222.358 133.042 221.693 128.377 220.123 123.983C218.552 119.589 216.109 115.556 212.938 112.128C210.178 109.184 206.842 106.835 203.137 105.228C199.431 103.621 195.435 102.789 191.394 102.784H191.28C173.403 102.784 158.153 118.372 157.147 137.607C156.394 152.671 164.675 165.992 177.709 170.744C178.082 170.88 178.385 171.158 178.552 171.517C178.719 171.876 178.736 172.286 178.6 172.658C178.535 172.843 178.434 173.012 178.302 173.157C178.17 173.302 178.011 173.42 177.834 173.503C177.656 173.585 177.463 173.632 177.267 173.64C177.071 173.647 176.876 173.616 176.692 173.547C162.379 168.351 153.321 153.845 154.132 137.459C155.171 116.663 171.815 99.8551 191.257 99.8551H191.383C195.826 99.8618 200.22 100.775 204.297 102.539C208.373 104.302 212.044 106.879 215.085 110.111C218.523 113.838 221.172 118.218 222.875 122.989C224.579 127.76 225.302 132.825 225.001 137.88C224.893 139.975 224.626 142.059 224.201 144.114C225.973 145.032 227.384 146.517 228.21 148.33C229.035 150.144 229.227 152.181 228.755 154.116C228.282 156.051 227.173 157.773 225.604 159.004C224.035 160.236 222.097 160.907 220.1 160.91C219.022 160.911 217.954 160.714 216.947 160.329C212.318 166.606 205.866 171.312 198.465 173.809C198.314 173.862 198.156 173.893 197.996 173.9Z" fill="white"/>
<path d="M205.73 191.46C205.333 191.46 204.952 191.303 204.672 191.023C204.391 190.743 204.233 190.363 204.233 189.967V168.784C204.215 168.578 204.24 168.37 204.307 168.174C204.374 167.978 204.481 167.798 204.621 167.645C204.761 167.492 204.931 167.371 205.121 167.287C205.311 167.204 205.516 167.161 205.724 167.161C205.932 167.161 206.137 167.204 206.327 167.287C206.517 167.371 206.687 167.492 206.827 167.645C206.968 167.798 207.074 167.978 207.141 168.174C207.208 168.37 207.233 168.578 207.215 168.784V189.967C207.215 190.361 207.059 190.739 206.781 191.019C206.502 191.298 206.125 191.457 205.73 191.46Z" fill="white"/>
<path d="M211.499 149.8C210.836 149.8 210.436 149.8 210.356 149.8C209.987 149.765 209.643 149.594 209.394 149.32C209.144 149.046 209.007 148.689 209.008 148.318C209.008 136.422 205.798 131.397 194.158 124.97C178.463 116.503 178.988 103.661 179.023 103.114C179.031 102.918 179.079 102.725 179.164 102.548C179.248 102.371 179.367 102.212 179.514 102.081C179.661 101.951 179.833 101.851 180.019 101.787C180.206 101.724 180.403 101.699 180.599 101.712C180.994 101.733 181.365 101.909 181.63 102.201C181.896 102.494 182.034 102.879 182.016 103.274C182.016 103.752 181.639 114.817 195.598 122.349C207.717 129.015 211.727 134.883 212.024 146.848C215.485 146.754 218.849 145.692 221.734 143.783C222.061 143.558 222.464 143.472 222.855 143.543C223.246 143.615 223.593 143.838 223.818 144.165C224.044 144.491 224.131 144.894 224.059 145.284C223.987 145.674 223.763 146.019 223.436 146.244C219.897 148.582 215.743 149.819 211.499 149.8Z" fill="white"/>
<path d="M147.461 175.222C147.141 175.224 146.83 175.123 146.573 174.934C146.316 174.745 146.126 174.478 146.033 174.174C145.973 173.988 145.95 173.793 145.967 173.598C145.983 173.404 146.038 173.215 146.129 173.042C146.219 172.869 146.343 172.716 146.493 172.592C146.643 172.467 146.817 172.373 147.004 172.316C147.461 172.168 157.947 168.613 156.885 153.697C156.876 153.314 157.014 152.941 157.273 152.658C157.531 152.374 157.889 152.2 158.272 152.172C158.655 152.144 159.035 152.265 159.332 152.508C159.628 152.752 159.82 153.1 159.866 153.48C161.1 170.835 148.032 175.131 147.906 175.131C147.763 175.184 147.613 175.214 147.461 175.222Z" fill="white"/>
<path d="M234.71 193.078C234.497 193.084 234.284 193.045 234.087 192.962C233.89 192.88 233.713 192.756 233.568 192.6C224.635 182.902 227.594 175.222 231.009 166.323C233.294 160.477 235.818 153.788 235.818 145.128C235.818 124.024 218.684 118.543 217.998 118.326C217.62 118.211 217.303 117.95 217.117 117.602C216.931 117.254 216.89 116.847 217.004 116.469C217.121 116.092 217.381 115.775 217.729 115.587C218.078 115.4 218.486 115.356 218.866 115.466C219.072 115.535 238.811 121.768 238.811 145.093C238.811 154.358 236.15 161.263 233.808 167.359C230.381 176.305 228.096 182.173 235.773 190.548C235.975 190.763 236.108 191.032 236.156 191.323C236.204 191.613 236.165 191.911 236.042 192.179C235.92 192.447 235.72 192.672 235.468 192.826C235.217 192.98 234.925 193.056 234.63 193.044L234.71 193.078Z" fill="white"/>
<path d="M176.11 149.788C175.575 149.791 175.041 149.761 174.51 149.697C173.196 149.621 171.913 149.259 170.753 148.637C169.593 148.015 168.583 147.148 167.794 146.096C166.418 143.862 165.967 141.181 166.537 138.621C166.579 138.428 166.659 138.246 166.772 138.084C166.885 137.922 167.029 137.784 167.196 137.678C167.362 137.572 167.549 137.5 167.743 137.467C167.938 137.433 168.138 137.438 168.331 137.482L185.008 141.344C185.217 141.39 185.413 141.482 185.583 141.612C185.753 141.742 185.892 141.907 185.991 142.097C186.092 142.286 186.15 142.496 186.162 142.71C186.174 142.925 186.139 143.139 186.059 143.339C185.226 145.275 183.836 146.92 182.065 148.068C180.294 149.216 178.222 149.815 176.11 149.788ZM169.256 140.809C169.188 141.573 169.283 142.343 169.534 143.068C169.785 143.793 170.187 144.457 170.713 145.017C171.24 145.576 171.878 146.018 172.588 146.314C173.297 146.61 174.062 146.753 174.83 146.734C176.226 146.973 177.66 146.828 178.978 146.314C180.297 145.8 181.449 144.937 182.312 143.817L169.256 140.809Z" fill="white"/>
<path d="M175.013 127.579C175.013 127.275 174.923 126.978 174.753 126.725C174.584 126.472 174.343 126.275 174.061 126.158C173.78 126.042 173.47 126.011 173.17 126.071C172.871 126.13 172.596 126.276 172.381 126.492C172.165 126.707 172.018 126.981 171.959 127.279C171.899 127.578 171.93 127.887 172.047 128.168C172.163 128.449 172.361 128.689 172.614 128.858C172.868 129.027 173.166 129.118 173.471 129.118C173.88 129.118 174.272 128.956 174.562 128.667C174.851 128.379 175.013 127.987 175.013 127.579Z" fill="white"/>
<path d="M189.063 130.656C189.063 130.352 188.973 130.054 188.804 129.801C188.634 129.548 188.393 129.351 188.111 129.235C187.83 129.118 187.52 129.088 187.22 129.147C186.921 129.207 186.647 129.353 186.431 129.568C186.215 129.783 186.068 130.057 186.009 130.356C185.949 130.654 185.98 130.964 186.097 131.245C186.213 131.526 186.411 131.766 186.665 131.935C186.918 132.104 187.216 132.194 187.521 132.194C187.93 132.194 188.323 132.032 188.612 131.744C188.901 131.455 189.063 131.064 189.063 130.656Z" fill="white"/>
<path d="M175.024 137.345C174.7 137.343 174.385 137.237 174.127 137.042C173.868 136.846 173.681 136.572 173.592 136.261C173.503 135.95 173.518 135.619 173.634 135.317C173.75 135.015 173.962 134.759 174.236 134.587C175.762 133.513 176.985 132.065 177.789 130.382C177.965 130.047 178.263 129.79 178.622 129.665C178.981 129.54 179.374 129.556 179.721 129.71C180.069 129.864 180.345 130.144 180.493 130.493C180.641 130.842 180.65 131.235 180.519 131.59C179.476 133.827 177.846 135.741 175.801 137.128C175.567 137.27 175.298 137.344 175.024 137.345Z" fill="white"/>
<path d="M180.473 243.319C180.333 243.335 180.191 243.335 180.051 243.319C147.986 233.861 154.097 190.298 154.166 189.853C154.191 189.656 154.255 189.465 154.355 189.293C154.455 189.12 154.588 188.969 154.747 188.849C154.906 188.729 155.088 188.642 155.281 188.592C155.475 188.543 155.676 188.533 155.873 188.563C156.071 188.593 156.26 188.661 156.431 188.765C156.601 188.869 156.749 189.006 156.865 189.167C156.982 189.329 157.065 189.512 157.109 189.706C157.154 189.901 157.159 190.102 157.125 190.298C157.125 190.708 151.333 231.73 180.907 240.436C181.248 240.542 181.538 240.766 181.728 241.068C181.917 241.369 181.992 241.728 181.94 242.08C181.888 242.431 181.711 242.753 181.442 242.986C181.173 243.22 180.83 243.35 180.473 243.353V243.319Z" fill="#0669FD"/>
<path d="M207.055 276C206.774 276 206.498 275.921 206.259 275.772C206.021 275.623 205.829 275.41 205.707 275.157C196.26 255.785 181.033 198.593 180.382 196.166C180.284 195.784 180.341 195.379 180.539 195.038C180.738 194.697 181.063 194.447 181.444 194.343C181.634 194.291 181.832 194.278 182.027 194.304C182.222 194.329 182.41 194.393 182.58 194.492C182.75 194.59 182.899 194.722 183.018 194.878C183.137 195.034 183.223 195.213 183.272 195.403C183.432 195.995 199.082 254.725 208.403 273.858C208.573 274.215 208.595 274.624 208.464 274.997C208.334 275.37 208.062 275.677 207.706 275.852C207.503 275.951 207.281 276.001 207.055 276Z" fill="white"/>
<path d="M244.477 274.086C244.223 274.085 243.973 274.02 243.751 273.896C243.529 273.773 243.343 273.595 243.209 273.379L232.357 256.07C214.297 230.124 223.138 200.872 223.527 199.642C223.581 199.449 223.673 199.27 223.798 199.114C223.922 198.957 224.077 198.828 224.253 198.732C224.429 198.637 224.623 198.578 224.822 198.558C225.021 198.539 225.222 198.56 225.413 198.619C225.605 198.679 225.782 198.776 225.935 198.905C226.088 199.034 226.213 199.192 226.303 199.37C226.394 199.549 226.447 199.743 226.461 199.942C226.474 200.142 226.448 200.342 226.383 200.531C226.291 200.815 217.598 229.645 234.858 254.429L245.745 271.795C245.881 272.022 245.955 272.28 245.96 272.544C245.965 272.809 245.899 273.069 245.771 273.3C245.642 273.531 245.455 273.725 245.228 273.86C245.001 273.996 244.742 274.07 244.477 274.074V274.086Z" fill="white"/>
<path d="M195.392 213.099C195.105 213.098 194.824 213.015 194.583 212.86C194.342 212.704 194.151 212.483 194.032 212.222L184.894 192.201C184.73 191.84 184.717 191.428 184.858 191.058C184.998 190.687 185.28 190.387 185.642 190.224C186.004 190.06 186.416 190.047 186.788 190.187C187.16 190.327 187.461 190.609 187.624 190.97L196.705 210.991C196.787 211.169 196.833 211.361 196.84 211.557C196.847 211.753 196.816 211.948 196.747 212.131C196.677 212.315 196.573 212.483 196.438 212.625C196.304 212.768 196.142 212.883 195.963 212.963C195.783 213.045 195.589 213.091 195.392 213.099Z" fill="white"/>
<path d="M203.525 210.399C203.259 210.397 202.997 210.324 202.768 210.188C202.539 210.052 202.351 209.857 202.223 209.624L193.085 193.397C192.92 193.055 192.892 192.663 193.006 192.301C193.121 191.939 193.369 191.635 193.701 191.449C194.032 191.263 194.423 191.21 194.792 191.301C195.161 191.392 195.482 191.62 195.689 191.939L204.827 208.177C204.925 208.347 204.987 208.535 205.011 208.729C205.035 208.924 205.02 209.121 204.966 209.31C204.913 209.498 204.823 209.675 204.701 209.828C204.579 209.982 204.428 210.11 204.256 210.205C204.033 210.33 203.781 210.397 203.525 210.399Z" fill="white"/>
<path d="M213.829 212.29C213.589 212.289 213.353 212.23 213.14 212.119C212.928 212.008 212.745 211.848 212.606 211.652L202.326 197.044C202.109 196.72 202.028 196.325 202.099 195.942C202.171 195.56 202.389 195.22 202.708 194.996C203.026 194.771 203.42 194.68 203.806 194.741C204.191 194.802 204.537 195.011 204.77 195.323L215.051 209.943C215.165 210.102 215.246 210.282 215.29 210.473C215.334 210.663 215.34 210.861 215.307 211.053C215.274 211.246 215.203 211.431 215.099 211.596C214.994 211.761 214.857 211.904 214.697 212.017C214.442 212.194 214.139 212.289 213.829 212.29Z" fill="white"/>
<path d="M264.821 274.086C264.521 274.084 264.228 273.994 263.979 273.825C263.731 273.657 263.539 273.418 263.428 273.14L244.328 225.349C241.553 218.419 237.099 212.284 231.363 207.493L232.277 206.353L233.236 205.214C239.355 210.315 244.105 216.854 247.058 224.244L266.158 272.035C266.304 272.402 266.299 272.812 266.142 273.175C265.986 273.538 265.692 273.825 265.324 273.972C265.165 274.042 264.994 274.08 264.821 274.086Z" fill="white"/>
<path d="M104.544 276C104.397 275.999 104.25 275.976 104.11 275.932C103.73 275.818 103.41 275.559 103.222 275.211C103.033 274.862 102.991 274.453 103.105 274.074C103.173 273.846 110.107 250.749 112.243 239.194C114.117 229.349 114.928 213.851 114.939 213.692C114.946 213.496 114.993 213.303 115.076 213.125C115.159 212.947 115.277 212.788 115.423 212.656C115.569 212.524 115.74 212.423 115.925 212.358C116.111 212.294 116.308 212.266 116.504 212.279C116.9 212.302 117.271 212.481 117.536 212.775C117.801 213.069 117.939 213.456 117.921 213.851C117.921 214.489 117.087 229.702 115.179 239.752C112.963 251.455 106.041 274.701 105.926 274.929C105.838 275.23 105.657 275.495 105.409 275.687C105.16 275.879 104.858 275.989 104.544 276Z" fill="white"/>
<path d="M66.0252 274.086C65.694 274.081 65.3733 273.969 65.1113 273.767C64.8 273.522 64.5979 273.164 64.5487 272.772C64.4995 272.38 64.6073 271.984 64.8486 271.67C71.7025 263.01 81.0351 247.398 85.056 231.901C88.7342 217.76 85.056 193.158 85.056 192.873C85.0074 192.487 85.1122 192.096 85.348 191.786C85.5838 191.475 85.932 191.269 86.3181 191.211C86.7042 191.153 87.0977 191.248 87.4146 191.476C87.7316 191.703 87.947 192.045 88.0147 192.429C88.1746 193.454 91.8185 217.919 88.0147 232.653C83.8681 248.606 74.2498 264.628 67.2589 273.505C67.1148 273.693 66.9275 273.844 66.7128 273.945C66.4982 274.046 66.2625 274.094 66.0252 274.086Z" fill="white"/>
<path d="M101.346 217.418C101.163 217.422 100.98 217.391 100.809 217.327C100.625 217.257 100.457 217.152 100.314 217.018C100.171 216.884 100.055 216.722 99.9749 216.543C99.8943 216.365 99.8497 216.172 99.8438 215.976C99.8379 215.78 99.8709 215.584 99.9407 215.401L107.937 194.571C107.994 194.373 108.093 194.189 108.225 194.03C108.358 193.872 108.522 193.743 108.707 193.651C108.892 193.559 109.094 193.506 109.301 193.496C109.507 193.486 109.714 193.518 109.907 193.592C110.1 193.665 110.276 193.778 110.424 193.923C110.571 194.067 110.687 194.241 110.764 194.433C110.84 194.624 110.877 194.83 110.87 195.036C110.863 195.242 110.813 195.445 110.724 195.631L102.728 216.461C102.62 216.74 102.431 216.981 102.184 217.152C101.938 217.322 101.646 217.415 101.346 217.418Z" fill="white"/>
<path d="M107.868 226.739H107.583C107.2 226.654 106.865 226.423 106.652 226.095C106.438 225.767 106.362 225.368 106.44 224.984L110.096 206.046C110.184 205.67 110.414 205.342 110.74 205.132C111.065 204.922 111.459 204.846 111.839 204.92C112.219 204.994 112.555 205.211 112.778 205.528C113 205.844 113.091 206.234 113.031 206.615L109.376 225.554C109.302 225.896 109.111 226.201 108.836 226.417C108.56 226.633 108.218 226.747 107.868 226.739Z" fill="white"/>
<path d="M94.3776 211.789C94.1571 211.788 93.9391 211.742 93.7378 211.652C93.3812 211.482 93.1061 211.178 92.9715 210.808C92.8368 210.437 92.8537 210.028 93.0183 209.669L102.545 189.489C102.622 189.302 102.736 189.133 102.881 188.991C103.026 188.85 103.197 188.739 103.386 188.666C103.575 188.593 103.776 188.558 103.979 188.565C104.181 188.572 104.38 188.62 104.564 188.705C104.747 188.791 104.911 188.913 105.046 189.064C105.18 189.214 105.283 189.391 105.347 189.582C105.412 189.774 105.437 189.976 105.42 190.178C105.404 190.379 105.347 190.575 105.252 190.754L95.7256 210.934C95.607 211.191 95.4168 211.408 95.1777 211.559C94.9386 211.711 94.6608 211.791 94.3776 211.789Z" fill="white"/>
<path d="M141.966 237.849H120.399C120.003 237.849 119.622 237.692 119.341 237.412C119.061 237.132 118.903 236.753 118.903 236.357C118.903 235.961 119.061 235.581 119.341 235.301C119.622 235.021 120.003 234.864 120.399 234.864H141.966C142.358 234.864 142.744 234.772 143.094 234.596C143.443 234.419 143.746 234.163 143.978 233.848C144.209 233.532 144.363 233.167 144.426 232.781C144.49 232.395 144.461 232 144.342 231.628L127.767 179.507C127.259 177.877 126.24 176.453 124.86 175.444C123.481 174.435 121.813 173.894 120.102 173.9H95.8627C95.4745 173.903 95.092 173.995 94.7455 174.169C94.3989 174.344 94.0977 174.596 93.8653 174.906C93.6329 175.217 93.4757 175.576 93.406 175.957C93.3363 176.338 93.3561 176.73 93.4637 177.102L100.318 200.36C100.373 200.548 100.391 200.746 100.37 200.941C100.349 201.137 100.289 201.326 100.195 201.498C100.1 201.671 99.973 201.823 99.8196 201.946C99.6662 202.07 99.4901 202.162 99.301 202.217C99.112 202.272 98.9139 202.29 98.718 202.269C98.5222 202.248 98.3323 202.189 98.1594 202.095C97.9865 202 97.8339 201.873 97.7103 201.72C97.5867 201.567 97.4946 201.391 97.4391 201.203L90.5852 177.946C90.3434 177.129 90.296 176.268 90.4468 175.43C90.5975 174.592 90.9423 173.8 91.4537 173.119C91.9651 172.437 92.6289 171.884 93.3923 171.503C94.1558 171.123 94.9978 170.925 95.8513 170.926H120.091C122.433 170.92 124.716 171.661 126.607 173.041C128.497 174.42 129.896 176.366 130.6 178.595L147.198 230.784C147.461 231.605 147.526 232.475 147.387 233.325C147.249 234.175 146.91 234.98 146.4 235.674C145.89 236.369 145.222 236.933 144.452 237.321C143.681 237.709 142.829 237.91 141.966 237.906V237.849Z" fill="white"/>
<path d="M167.794 24.1348C167.399 24.1348 167.02 23.9791 166.739 23.7017C166.459 23.4242 166.3 23.0474 166.297 22.6535C166.297 20.8402 165.575 19.1012 164.29 17.819C163.004 16.5368 161.261 15.8164 159.443 15.8164C159.247 15.8164 159.052 15.7778 158.871 15.7028C158.689 15.6278 158.524 15.5178 158.385 15.3792C158.246 15.2406 158.136 15.076 158.061 14.8949C157.986 14.7138 157.947 14.5197 157.947 14.3237C157.947 14.1277 157.986 13.9335 158.061 13.7524C158.136 13.5713 158.246 13.4068 158.385 13.2681C158.524 13.1295 158.689 13.0196 158.871 12.9446C159.052 12.8695 159.247 12.8309 159.443 12.8309C161.251 12.831 162.986 12.1185 164.27 10.8486C165.553 9.57869 166.282 7.85427 166.297 6.05086C166.297 5.85483 166.336 5.66072 166.411 5.47961C166.486 5.2985 166.597 5.13394 166.736 4.99532C166.874 4.85671 167.039 4.74675 167.221 4.67173C167.402 4.59672 167.597 4.55811 167.794 4.55811C167.99 4.55811 168.185 4.59672 168.366 4.67173C168.548 4.74675 168.713 4.85671 168.852 4.99532C168.991 5.13394 169.101 5.2985 169.176 5.47961C169.251 5.66072 169.29 5.85483 169.29 6.05086C169.305 7.85427 170.034 9.57869 171.318 10.8486C172.601 12.1185 174.336 12.831 176.144 12.8309C176.541 12.8309 176.921 12.9882 177.202 13.2681C177.483 13.5481 177.64 13.9278 177.64 14.3237C177.64 14.7196 177.483 15.0993 177.202 15.3792C176.921 15.6592 176.541 15.8164 176.144 15.8164C174.326 15.8164 172.583 16.5368 171.297 17.819C170.012 19.1012 169.29 20.8402 169.29 22.6535C169.287 23.0474 169.128 23.4242 168.848 23.7017C168.567 23.9791 168.188 24.1348 167.794 24.1348ZM164.698 14.3693C165.949 15.1592 167.006 16.2182 167.794 17.4687C168.582 16.2153 169.644 15.1558 170.901 14.3693C169.642 13.5904 168.579 12.534 167.794 11.2812C167.009 12.531 165.951 13.5868 164.698 14.3693Z" fill="#00D0A6"/>
<path d="M71.0289 158.073C70.632 158.073 70.2513 157.915 69.9707 157.635C69.6901 157.355 69.5324 156.976 69.5324 156.58C69.5324 154.766 68.8104 153.027 67.525 151.745C66.2397 150.463 64.4963 149.743 62.6786 149.743C62.4719 149.761 62.2636 149.736 62.0671 149.669C61.8706 149.603 61.6901 149.496 61.5371 149.356C61.3841 149.216 61.2619 149.046 61.1783 148.857C61.0947 148.667 61.0516 148.463 61.0516 148.256C61.0516 148.049 61.0947 147.844 61.1783 147.654C61.2619 147.465 61.3841 147.295 61.5371 147.155C61.6901 147.015 61.8706 146.909 62.0671 146.842C62.2636 146.776 62.4719 146.751 62.6786 146.769C64.4963 146.769 66.2397 146.048 67.525 144.766C68.8104 143.484 69.5324 141.745 69.5324 139.932C69.5324 139.536 69.6901 139.156 69.9707 138.876C70.2513 138.596 70.632 138.439 71.0289 138.439C71.4258 138.439 71.8064 138.596 72.087 138.876C72.3676 139.156 72.5253 139.536 72.5253 139.932C72.5253 141.745 73.2473 143.484 74.5327 144.766C75.818 146.048 77.5614 146.769 79.3791 146.769C79.5859 146.751 79.7941 146.776 79.9906 146.842C80.1871 146.909 80.3676 147.015 80.5206 147.155C80.6736 147.295 80.7958 147.465 80.8794 147.654C80.963 147.844 81.0061 148.049 81.0061 148.256C81.0061 148.463 80.963 148.667 80.8794 148.857C80.7958 149.046 80.6736 149.216 80.5206 149.356C80.3676 149.496 80.1871 149.603 79.9906 149.669C79.7941 149.736 79.5859 149.761 79.3791 149.743C77.5614 149.743 75.818 150.463 74.5327 151.745C73.2473 153.027 72.5253 154.766 72.5253 156.58C72.5253 156.976 72.3676 157.355 72.087 157.635C71.8064 157.915 71.4258 158.073 71.0289 158.073ZM67.9332 148.307C69.186 149.089 70.2446 150.145 71.0289 151.395C71.8133 150.145 72.8717 149.089 74.1245 148.307C72.8739 147.517 71.8162 146.458 71.0289 145.207C70.2416 146.458 69.1838 147.517 67.9332 148.307Z" fill="#00D0A6"/>
<path d="M58.4176 77.2359C58.0207 77.2359 57.6402 77.0786 57.3595 76.7987C57.0789 76.5188 56.9211 76.1391 56.9211 75.7432C56.9211 73.9299 56.1991 72.1908 54.9137 70.9086C53.6284 69.6264 51.885 68.9061 50.0673 68.9061C49.6704 68.9061 49.2898 68.7489 49.0092 68.4689C48.7286 68.189 48.5709 67.8093 48.5709 67.4134C48.5709 67.0175 48.7286 66.6378 49.0092 66.3578C49.2898 66.0779 49.6704 65.9206 50.0673 65.9206C51.885 65.9206 53.6284 65.2003 54.9137 63.9181C56.1991 62.6359 56.9211 60.8969 56.9211 59.0836C56.9211 58.6877 57.0789 58.308 57.3595 58.028C57.6402 57.7481 58.0207 57.5908 58.4176 57.5908C58.8145 57.5908 59.1951 57.7481 59.4757 58.028C59.7563 58.308 59.914 58.6877 59.914 59.0836C59.914 60.8969 60.6362 62.6359 61.9215 63.9181C63.2069 65.2003 64.9501 65.9206 66.7678 65.9206C67.1647 65.9206 67.5454 66.0779 67.826 66.3578C68.1067 66.6378 68.2643 67.0175 68.2643 67.4134C68.2643 67.8093 68.1067 68.189 67.826 68.4689C67.5454 68.7489 67.1647 68.9061 66.7678 68.9061C64.9501 68.9061 63.2069 69.6264 61.9215 70.9086C60.6362 72.1908 59.914 73.9299 59.914 75.7432C59.914 76.1391 59.7563 76.5188 59.4757 76.7987C59.1951 77.0786 58.8145 77.2359 58.4176 77.2359ZM55.322 67.4703C56.5697 68.2591 57.6269 69.3137 58.4176 70.5584C59.2084 69.3137 60.2655 68.2591 61.5132 67.4703C60.2626 66.6804 59.2049 65.6214 58.4176 64.3709C57.6303 65.6214 56.5726 66.6804 55.322 67.4703Z" fill="#0097F7"/>
<path d="M39.5467 119.648C39.1498 119.648 38.7692 119.491 38.4886 119.211C38.208 118.931 38.0502 118.552 38.0502 118.156C38.0502 114.088 34.6918 108.641 31.1964 108.641C30.7995 108.641 30.4189 108.483 30.1383 108.204C29.8576 107.924 29.7 107.544 29.7 107.148C29.7 106.752 29.8576 106.372 30.1383 106.092C30.4189 105.812 30.7995 105.655 31.1964 105.655C34.6233 105.655 38.0502 100.208 38.0502 96.1403C38.0502 95.9443 38.0889 95.7502 38.1641 95.5691C38.2393 95.388 38.3497 95.2234 38.4886 95.0848C38.6276 94.9462 38.7925 94.8362 38.974 94.7612C39.1556 94.6862 39.3502 94.6476 39.5467 94.6476C39.7432 94.6476 39.9378 94.6862 40.1194 94.7612C40.3009 94.8362 40.4658 94.9462 40.6048 95.0848C40.7437 95.2234 40.8541 95.388 40.9293 95.5691C41.0045 95.7502 41.0432 95.9443 41.0432 96.1403C41.0432 100.208 44.4016 105.655 47.897 105.655C48.2939 105.655 48.6745 105.812 48.9551 106.092C49.2358 106.372 49.3934 106.752 49.3934 107.148C49.3934 107.544 49.2358 107.924 48.9551 108.204C48.6745 108.483 48.2939 108.641 47.897 108.641C44.4701 108.641 41.0432 114.088 41.0432 118.156C41.0432 118.552 40.8854 118.931 40.6048 119.211C40.3242 119.491 39.9436 119.648 39.5467 119.648ZM35.5372 107.114C37.2644 108.452 38.6403 110.188 39.5467 112.173C40.4572 110.187 41.8369 108.451 43.5676 107.114C41.8369 105.776 40.4572 104.04 39.5467 102.054C38.6547 104.048 37.2905 105.796 35.5715 107.148L35.5372 107.114Z" fill="#0669FD"/>
<path d="M194.444 68.9744C194.047 68.9744 193.666 68.8171 193.386 68.5372C193.105 68.2572 192.947 67.8776 192.947 67.4817C192.947 63.4136 189.589 57.9668 186.094 57.9668C185.697 57.9668 185.316 57.8095 185.035 57.5296C184.755 57.2496 184.597 56.8699 184.597 56.474C184.597 56.0781 184.755 55.6984 185.035 55.4185C185.316 55.1385 185.697 54.9813 186.094 54.9813C189.52 54.9813 192.947 49.5344 192.947 45.4664C192.947 45.2704 192.986 45.0762 193.061 44.8951C193.137 44.714 193.247 44.5495 193.386 44.4109C193.525 44.2722 193.689 44.1623 193.871 44.0873C194.053 44.0122 194.247 43.9736 194.444 43.9736C194.64 43.9736 194.835 44.0122 195.016 44.0873C195.198 44.1623 195.363 44.2722 195.502 44.4109C195.641 44.5495 195.751 44.714 195.826 44.8951C195.902 45.0762 195.94 45.2704 195.94 45.4664C195.94 49.5344 199.299 54.9813 202.737 54.9813C203.134 54.9813 203.514 55.1385 203.795 55.4185C204.076 55.6984 204.233 56.0781 204.233 56.474C204.233 56.8699 204.076 57.2496 203.795 57.5296C203.514 57.8095 203.134 57.9668 202.737 57.9668C199.31 57.9668 195.94 63.4136 195.94 67.4817C195.94 67.8776 195.783 68.2572 195.502 68.5372C195.221 68.8171 194.841 68.9744 194.444 68.9744ZM190.423 56.4398C192.153 57.7726 193.533 59.505 194.444 61.4879C195.35 59.5058 196.726 57.7733 198.453 56.4398C196.726 55.1018 195.35 53.3657 194.444 51.3804C193.533 53.3664 192.154 55.1025 190.423 56.4398Z" fill="#0669FD"/>
<path d="M170.65 191.46H149.288C148.891 191.46 148.511 191.303 148.23 191.023C147.95 190.743 147.792 190.363 147.792 189.967C147.792 189.571 147.95 189.192 148.23 188.912C148.511 188.632 148.891 188.475 149.288 188.475H169.153V168.784C169.135 168.578 169.16 168.37 169.227 168.174C169.293 167.978 169.4 167.798 169.54 167.645C169.681 167.492 169.851 167.371 170.041 167.287C170.231 167.204 170.436 167.161 170.644 167.161C170.851 167.161 171.057 167.204 171.246 167.287C171.436 167.371 171.607 167.492 171.747 167.645C171.887 167.798 171.994 167.978 172.061 168.174C172.127 168.37 172.153 168.578 172.134 168.784V189.967C172.134 190.361 171.978 190.739 171.7 191.019C171.422 191.298 171.044 191.457 170.65 191.46Z" fill="white"/>
</svg>
